<?xml version="1.0" encoding="utf-8"?>
<!-- Generator: Adobe Illustrator 21.0.2, SVG Export Plug-In . SVG Version: 6.00 Build 0)  -->
<svg version="1.1" id="Isolation_Mode" xmlns="http://www.w3.org/2000/svg" xmlns:xlink="http://www.w3.org/1999/xlink" x="0px"
	 y="0px" viewBox="0 0 111 70.7" style="enable-background:new 0 0 111 70.7;" xml:space="preserve">
<g>
	<g>
		<path d="M109.8,58.7H1.2c-0.7,0-1.2-0.6-1.2-1.2V1.2C0,0.6,0.6,0,1.2,0h9.4c0.7,0,1.2,0.6,1.2,1.2V46h84.1c0,0,0.1,0,0.1,0H99
			V27.1c0-0.3,0.1-0.7,0.4-0.9c0.2-0.2,0.5-0.3,0.9-0.4l9.3,0.1c0.7,0,1.2,0.6,1.2,1.2l0.2,30.2c0,0.3-0.1,0.7-0.4,0.9
			S110.1,58.7,109.8,58.7z M2.5,56.2h106l-0.2-27.7l-6.8-0.1v18.9c0,0.7-0.6,1.2-1.2,1.2h-4.3c0,0-0.1,0-0.1,0H10.6
			c-0.7,0-1.2-0.6-1.2-1.2V2.5H2.5V56.2z"/>
	</g>
	<g>
		<path d="M99.6,35.1h-87c-0.7,0-1.2-0.6-1.2-1.2s0.6-1.2,1.2-1.2h87c0.7,0,1.2,0.6,1.2,1.2S100.2,35.1,99.6,35.1z"/>
	</g>
	<g>
		<path d="M35.3,35.3C35.3,35.3,35.3,35.3,35.3,35.3L11.2,35c-0.7,0-1.2-0.6-1.2-1.2l-0.1-12c0-0.5,0.2-0.9,0.6-1.1
			c2.6-1.7,7.3-2.3,13.7-1.6c4.7,0.5,7.9,1.5,10.5,3.3l0,0c0,0,3.6,2.4,4,6.6c0.2,2.1,0.1,4.7-2.8,6.2
			C35.7,35.3,35.5,35.3,35.3,35.3z M12.5,32.5L35,32.8c1.1-0.7,1.4-1.6,1.2-3.6c-0.3-3-2.9-4.8-2.9-4.8c-2.2-1.5-5.1-2.4-9.3-2.8
			c-7.1-0.7-10.3,0.2-11.6,0.9L12.5,32.5z"/>
	</g>
	<g>
		<path d="M25.9,70.7H15.5c-0.7,0-1.2-0.6-1.2-1.2V58.6c0-0.7,0.6-1.2,1.2-1.2s1.2,0.6,1.2,1.2v9.6h7.9V59c0-0.7,0.6-1.2,1.2-1.2
			s1.2,0.6,1.2,1.2v10.4C27.2,70.1,26.6,70.7,25.9,70.7z"/>
	</g>
	<g>
		<path d="M91.9,70.7H81.4c-0.7,0-1.2-0.6-1.2-1.2V58.6c0-0.7,0.6-1.2,1.2-1.2s1.2,0.6,1.2,1.2v9.6h7.9V59c0-0.7,0.6-1.2,1.2-1.2
			s1.2,0.6,1.2,1.2v10.4C93.1,70.1,92.5,70.7,91.9,70.7z"/>
	</g>
</g>
</svg>
