<?xml version="1.0" encoding="utf-8"?>
<!-- Generator: Adobe Illustrator 21.0.2, SVG Export Plug-In . SVG Version: 6.00 Build 0)  -->
<svg version="1.1" id="Isolation_Mode" xmlns="http://www.w3.org/2000/svg" xmlns:xlink="http://www.w3.org/1999/xlink" x="0px"
	 y="0px" viewBox="0 0 103.5 106.2" style="enable-background:new 0 0 103.5 106.2;" xml:space="preserve">
<g>
	<g>
		<path d="M101,106.2c-1.4,0-2.5-1.1-2.5-2.5V38.5L54.4,5.6L5,38.6v65.2c0,1.4-1.1,2.5-2.5,2.5S0,105.1,0,103.8V37.2
			c0-0.8,0.4-1.6,1.1-2.1l52-34.8c0.9-0.6,2-0.6,2.9,0.1l46.5,34.8c0.6,0.5,1,1.2,1,2v66.5C103.5,105.1,102.4,106.2,101,106.2z"/>
	</g>
	<g>
		<path d="M99.8,85H64.7c-1.4,0-2.5-1.1-2.5-2.5s1.1-2.5,2.5-2.5h35.1c1.4,0,2.5,1.1,2.5,2.5S101.1,85,99.8,85z"/>
	</g>
	<g>
		<path d="M67,54.5H3.2c-1.4,0-2.5-1.1-2.5-2.5s1.1-2.5,2.5-2.5H67c1.4,0,2.5,1.1,2.5,2.5S68.4,54.5,67,54.5z"/>
	</g>
	<g>
		<path d="M28.5,104.9H15.1c-1.4,0-2.5-1.1-2.5-2.5s1.1-2.5,2.5-2.5H26v-7.3c0-1.4,1.1-2.5,2.5-2.5h9.4v-7.6c0-1.4,1.1-2.5,2.5-2.5
			H51v-8.3c0-1.4,1.1-2.5,2.5-2.5h10.1v-7.5c0-1.4,1.1-2.5,2.5-2.5h10.1V52c0-1.4,1.1-2.5,2.5-2.5h21.5c1.4,0,2.5,1.1,2.5,2.5
			s-1.1,2.5-2.5,2.5h-19v7.1c0,1.4-1.1,2.5-2.5,2.5H68.6v7.5c0,1.4-1.1,2.5-2.5,2.5H56v8.3c0,1.4-1.1,2.5-2.5,2.5H42.9v7.6
			c0,1.4-1.1,2.5-2.5,2.5H31v7.3C31,103.8,29.9,104.9,28.5,104.9z"/>
	</g>
	<g>
		<path d="M30.3,85H4.2c-1.4,0-2.5-1.1-2.5-2.5S2.8,80,4.2,80h26.2c1.4,0,2.5,1.1,2.5,2.5S31.7,85,30.3,85z"/>
	</g>
</g>
</svg>
