<?xml version="1.0" encoding="utf-8"?>
<!-- Generator: Adobe Illustrator 21.0.2, SVG Export Plug-In . SVG Version: 6.00 Build 0)  -->
<svg version="1.1" id="Icons_Small" xmlns="http://www.w3.org/2000/svg" xmlns:xlink="http://www.w3.org/1999/xlink" x="0px"
	 y="0px" viewBox="0 0 38.2 23.5" style="enable-background:new 0 0 38.2 23.5;" xml:space="preserve">
<g id="_x33_D_Walkthrough_1_">
	<g id="_x33_D_Walkthrough_3_">
		<g>
			<g>
				<path d="M5.3,21.3C1.9,18.9,0,15.8,0,12.4C0,5.6,7.9,0,17.7,0s17.7,5.6,17.7,12.4h-1.6c0-6-7.2-10.8-16.1-10.8S1.6,6.4,1.6,12.4
					c0,2.8,1.6,5.5,4.6,7.6L5.3,21.3z"/>
			</g>
			<g>
				<g>
					<polygon points="6.9,17.1 10,23.5 2.9,23 					"/>
				</g>
			</g>
			<g>
				<g>
					<polygon points="31.1,11.4 34.6,17.5 38.2,11.4 					"/>
				</g>
			</g>
		</g>
	</g>
	<g>
		<g>
			<path d="M12.3,19.3l1.2-1.2c0.6,0.7,1.2,1,2.1,1c0.7,0,1.3-0.4,1.3-1.1v0c0-0.7-0.6-1.1-1.7-1.1h-0.8l-0.3-1.1l2.1-2.1h-3.4v-1.5
				h5.7v1.3l-2.2,2.1c1.2,0.2,2.3,0.8,2.3,2.4v0c0,1.6-1.2,2.7-3,2.7C14.1,20.8,13.1,20.2,12.3,19.3z"/>
		</g>
		<g>
			<path d="M20.5,12.2h3.3c2.7,0,4.5,1.8,4.5,4.2v0c0,2.4-1.8,4.2-4.5,4.2h-3.3V12.2z M22.2,13.8V19h1.5c1.6,0,2.6-1.1,2.6-2.6v0
				c0-1.5-1.1-2.6-2.6-2.6H22.2z"/>
		</g>
	</g>
</g>
</svg>
