<?xml version="1.0" encoding="utf-8"?>
<!-- Generator: Adobe Illustrator 21.0.2, SVG Export Plug-In . SVG Version: 6.00 Build 0)  -->
<svg version="1.1" id="Layer_1" xmlns="http://www.w3.org/2000/svg" xmlns:xlink="http://www.w3.org/1999/xlink" x="0px" y="0px"
	 viewBox="0 0 139.2 122.2" style="enable-background:new 0 0 139.2 122.2;" xml:space="preserve">
<g>
	<path d="M45.1,73.2c-0.6,0-1.2-0.3-1.6-0.8c-0.7-0.9-0.5-2.1,0.4-2.8l43.3-33.5c0.7-0.6,1.8-0.6,2.5,0.1l38.8,33.3
		c0.8,0.7,0.9,2,0.2,2.8c-0.7,0.8-2,0.9-2.8,0.2L88.3,40.3l-42,32.5C45.9,73.1,45.5,73.2,45.1,73.2z"/>
</g>
<g>
	<path d="M118.4,119.7H54.6c-1.1,0-2-0.9-2-2V64.5c0-1.1,0.9-2,2-2s2,0.9,2,2v51.2h59.8V66.5c0-1.1,0.9-2,2-2s2,0.9,2,2v51.2
		C120.4,118.8,119.5,119.7,118.4,119.7z"/>
</g>
<g>
	<path d="M27.9,115.9c-1.1,0-2-0.9-2-2l-0.2-100c0-1.1,0.9-2,2-2c0,0,0,0,0,0c1.1,0,2,0.9,2,2l0.2,100C29.9,115,29,115.9,27.9,115.9
		C27.9,115.9,27.9,115.9,27.9,115.9z"/>
</g>
<g>
	<path d="M11.2,30.3c-1.1,0-2-0.9-2-2c0-1.1,0.9-2,2-2l116.7-0.5c0,0,0,0,0,0c1.1,0,2,0.9,2,2c0,1.1-0.9,2-2,2L11.2,30.3
		C11.2,30.3,11.2,30.3,11.2,30.3z"/>
</g>
<g>
	<polyline points="125.3,18.7 139.2,27.1 125.5,34.8 	"/>
</g>
<g>
	<polyline points="19.7,14 28.1,0 35.8,13.8 	"/>
</g>
<g>
	<polyline points="14,36 0,27.7 13.8,20 	"/>
</g>
<g>
	<polyline points="36,108.3 27.6,122.2 19.9,108.5 	"/>
</g>
</svg>
