<?xml version="1.0" encoding="utf-8"?>
<!-- Generator: Adobe Illustrator 21.0.2, SVG Export Plug-In . SVG Version: 6.00 Build 0)  -->
<svg version="1.1" id="Isolation_Mode" xmlns="http://www.w3.org/2000/svg" xmlns:xlink="http://www.w3.org/1999/xlink" x="0px"
	 y="0px" viewBox="0 0 105.1 144" style="enable-background:new 0 0 105.1 144;" xml:space="preserve">
<g>
	<g>
		<path d="M87.4,144H21.6c-0.8,0-1.6-0.4-2.1-1.1c-0.5-0.7-0.5-1.6-0.2-2.4l12-26.8c-11-4-19.1-10.1-24.3-18.4
			c-9.1-14.5-7.1-29.2-5.9-34.9c0.3-1.1,1.3-1.9,2.4-1.9h97.6c1.3,0,2.4,1,2.5,2.3c0,0.4,0.1,0.8,0.2,1.4c0.7,5.9,2.3,19.6-6.6,33.2
			c-6.2,9.5-14.2,15.1-20.5,18.3l12.9,26.7c0.4,0.8,0.3,1.7-0.1,2.4C89,143.6,88.2,144,87.4,144z M25.4,139h58l-12.3-25.4
			c-0.3-0.6-0.3-1.3-0.1-1.9c0.2-0.6,0.7-1.1,1.3-1.4c5.9-2.7,14.3-7.9,20.6-17.6c7.6-11.6,6.6-23.5,5.9-29.1H5.6
			C4.7,69,3.9,81.1,11.2,92.7c4.9,7.8,13,13.6,24.1,17.1l0.2,0.1c0.7,0.2,1.2,0.7,1.5,1.4c0.3,0.6,0.3,1.4,0,2L25.4,139z"/>
	</g>
	<g>
		<path d="M102.6,76H2.6c-1.4,0-2.5-1.1-2.5-2.5S1.2,71,2.6,71h100c1.4,0,2.5,1.1,2.5,2.5S104,76,102.6,76z"/>
	</g>
	<g>
		<path d="M88.6,62c-0.1,0-0.1,0-0.2,0c-1.4-0.1-2.4-1.3-2.3-2.7L90.4,5H12.3l4.3,53.3c0.1,1.4-0.9,2.6-2.3,2.7
			c-1.4,0.1-2.6-0.9-2.7-2.3l-4.5-56C7,2,7.3,1.3,7.7,0.8C8.2,0.3,8.9,0,9.6,0h83.5c0.7,0,1.4,0.3,1.8,0.8c0.5,0.5,0.7,1.2,0.7,1.9
			l-4.5,57C91,61,89.9,62,88.6,62z"/>
	</g>
	<g>
		<path d="M81.1,20.5H68.6c-1.4,0-2.5-1.1-2.5-2.5s1.1-2.5,2.5-2.5h12.5c1.4,0,2.5,1.1,2.5,2.5S82.5,20.5,81.1,20.5z"/>
	</g>
</g>
</svg>
