<?xml version="1.0" encoding="utf-8"?>
<!-- Generator: Adobe Illustrator 21.0.2, SVG Export Plug-In . SVG Version: 6.00 Build 0)  -->
<svg version="1.1" id="Layer_1" xmlns="http://www.w3.org/2000/svg" xmlns:xlink="http://www.w3.org/1999/xlink" x="0px" y="0px"
	 viewBox="0 0 128.8 83.6" style="enable-background:new 0 0 128.8 83.6;" xml:space="preserve">
<g>
	<g>
		<g>
			<path d="M77,32.1H1.5c-0.8,0-1.5-0.7-1.5-1.5s0.7-1.5,1.5-1.5H77c0.8,0,1.5,0.7,1.5,1.5S77.8,32.1,77,32.1z"/>
		</g>
		<g>
			<path d="M61.1,74.1c-9.1,0-18.6-0.1-26.7-0.4c-10.7-0.4-18.7-7.7-23.3-21.1c-3.3-9.9-3.6-19.4-3.6-19.8c0-0.8,0.6-1.5,1.5-1.5
				c0,0,0,0,0,0c0.8,0,1.5,0.6,1.5,1.5c0,0.4,1.3,37.1,24.1,38c23.7,1,59.1,0,60.8,0c1.7-0.2,26.5-3.8,24.6-37.9
				c0-0.8,0.6-1.5,1.4-1.6c0.8,0,1.5,0.6,1.6,1.4c2.1,37.5-27,41-27.3,41.1c0,0-0.1,0-0.1,0C95.3,73.6,79.1,74.1,61.1,74.1z"/>
		</g>
		<g>
			<path d="M77.5,41.1H10c-0.8,0-1.5-0.7-1.5-1.5s0.7-1.5,1.5-1.5h67.5c0.8,0,1.5,0.7,1.5,1.5S78.3,41.1,77.5,41.1z"/>
		</g>
		<g>
			<path d="M42.5,83.6h-10c-0.8,0-1.5-0.7-1.5-1.5s0.7-1.5,1.5-1.5H37v-7.5c0-0.8,0.7-1.5,1.5-1.5s1.5,0.7,1.5,1.5v7.5h1v-6
				c0-0.8,0.7-1.5,1.5-1.5s1.5,0.7,1.5,1.5v7.5C44,83,43.3,83.6,42.5,83.6z"/>
		</g>
		<g>
			<path d="M91,83.1H81c-0.8,0-1.5-0.7-1.5-1.5v-7.5c0-0.8,0.7-1.5,1.5-1.5s1.5,0.7,1.5,1.5v6h1v-7.5c0-0.8,0.7-1.5,1.5-1.5
				s1.5,0.7,1.5,1.5v7.5H91c0.8,0,1.5,0.7,1.5,1.5S91.8,83.1,91,83.1z"/>
		</g>
		<g>
			<path d="M19.5,29.6c-0.8,0-1.5-0.7-1.5-1.5V10.3c0.1-3.7,1.4-6.9,3.6-8.7c1.6-1.3,3.6-1.8,5.7-1.5c3.8,0.7,5.8,4.5,5.6,10.2
				c0,0.8-0.7,1.5-1.6,1.4c-0.8,0-1.5-0.7-1.4-1.6c0.1-2-0.1-6.6-3.1-7.2c-1.2-0.2-2.3,0.1-3.2,0.8C22,5.2,21,7.6,21,10.3v17.8
				C21,29,20.3,29.6,19.5,29.6z"/>
		</g>
		<g>
			<path d="M100,50.1H76V31.2c-0.1-0.8-0.4-5.6,3.6-8.7c4.3-3.5,14.3-3.8,20.6-2c3.2,0.9,5.1,2.3,5.7,4.2l0.4,1.3l-1.2,0.6
				c0,0-3.4,1.7-3.5,4.2c-0.2,9.7,0,17.9,0,17.9l0,1.5H100z M79,47.1h19.5c0-2.8-0.1-9.3,0-16.5c0-2.8,2.1-4.8,3.6-5.9
				c-0.6-0.4-1.5-0.9-2.9-1.3c-5.4-1.6-14.4-1.4-17.8,1.4c-2.9,2.3-2.5,6.1-2.5,6.1l0,0.2V47.1z"/>
		</g>
	</g>
	<g>
		<path d="M26.5,12.6c-0.8,0-1.5-0.6-1.5-1.4c0-0.8,0.6-1.5,1.4-1.6l9.8-0.5c0.8,0,1.5,0.6,1.6,1.4c0,0.8-0.6,1.5-1.4,1.6L26.5,12.6
			C26.6,12.6,26.5,12.6,26.5,12.6z"/>
	</g>
	<g>
		<path d="M121,41.1h-20.8c-0.8,0-1.5-0.7-1.5-1.5s0.7-1.5,1.5-1.5H121c0.8,0,1.5,0.7,1.5,1.5S121.8,41.1,121,41.1z"/>
	</g>
	<g>
		<path d="M127.2,32.1h-26.8c-0.8,0-1.5-0.7-1.5-1.5s0.7-1.5,1.5-1.5h26.8c0.8,0,1.5,0.7,1.5,1.5S128.1,32.1,127.2,32.1z"/>
	</g>
</g>
</svg>
