<?xml version="1.0" encoding="utf-8"?>
<!-- Generator: Adobe Illustrator 21.0.2, SVG Export Plug-In . SVG Version: 6.00 Build 0)  -->
<svg version="1.1" id="Layer_1" xmlns="http://www.w3.org/2000/svg" xmlns:xlink="http://www.w3.org/1999/xlink" x="0px" y="0px"
	 viewBox="0 0 28 28" style="enable-background:new 0 0 28 28;" xml:space="preserve">
<path d="M24.5,6.1H11.4V3.5l-7-0.1V6H2.6c-1,0-1.8,0.8-1.8,1.8v14.9c0,1,0.8,1.8,1.8,1.8h21.9c1,0,1.8-0.8,1.8-1.8V7.8
	C26.2,6.9,25.5,6.1,24.5,6.1z M6.1,5.2h3.5v2.6H6.1V5.2z M10.5,21.8c-3.4,0-6.1-2.7-6.1-6.1s2.7-6.1,6.1-6.1c3.4,0,6.1,2.7,6.1,6.1
	C16.6,19.1,13.9,21.8,10.5,21.8z M22.3,11.8c-1,0-1.8-0.8-1.8-1.8s0.8-1.8,1.8-1.8S24.1,9,24.1,10S23.3,11.8,22.3,11.8z M10.5,11.9
	c-2.2,0-3.9,1.8-3.9,3.9s1.8,3.9,3.9,3.9s3.9-1.8,3.9-3.9S12.7,11.9,10.5,11.9z"/>
</svg>
