<?xml version="1.0" encoding="utf-8"?>
<!-- Generator: Adobe Illustrator 21.0.2, SVG Export Plug-In . SVG Version: 6.00 Build 0)  -->
<svg version="1.1" id="Isolation_Mode" xmlns="http://www.w3.org/2000/svg" xmlns:xlink="http://www.w3.org/1999/xlink" x="0px"
	 y="0px" viewBox="0 0 109.5 102.2" style="enable-background:new 0 0 109.5 102.2;" xml:space="preserve">
<g>
	<g>
		<path d="M107,102.2c-1.4,0-2.5-1.1-2.5-2.5V38.5l-47.1-33L5,38.6v61.1c0,1.4-1.1,2.5-2.5,2.5S0,101.1,0,99.8V37.2
			c0-0.9,0.4-1.7,1.2-2.1l55-34.8c0.9-0.5,1.9-0.5,2.8,0.1l49.5,34.8c0.7,0.5,1.1,1.2,1.1,2v62.5C109.5,101.1,108.4,102.2,107,102.2
			z"/>
	</g>
	<g>
		<path d="M92.7,101.9H17.3c-1.4,0-2.5-1.1-2.5-2.5V40.8c0-1.4,1.1-2.5,2.5-2.5h75.3c1.4,0,2.5,1.1,2.5,2.5v58.7
			C95.2,100.8,94,101.9,92.7,101.9z M19.8,96.9h70.3V43.2H19.8V96.9z"/>
	</g>
	<g>
		<path d="M81.5,62.4H27.3c-1.1,0-2-0.9-2-2v-9.5c0-1.1,0.9-2,2-2h54.2c1.1,0,2,0.9,2,2v9.5C83.5,61.5,82.6,62.4,81.5,62.4z
			 M29.3,58.4h50.2v-5.5H29.3V58.4z"/>
	</g>
	<g>
		<path d="M44.7,61.2c-1.1,0-2-0.9-2-2v-8.3c0-1.1,0.9-2,2-2s2,0.9,2,2v8.3C46.7,60.3,45.8,61.2,44.7,61.2z"/>
	</g>
	<g>
		<path d="M64.8,61.9c-1.1,0-2-0.9-2-2l0-8.5c0-1.1,0.9-2,2-2c0,0,0,0,0,0c1.1,0,2,0.9,2,2l0,8.5C66.8,61,65.9,61.9,64.8,61.9
			C64.8,61.9,64.8,61.9,64.8,61.9z"/>
	</g>
	<g>
		<path d="M91.2,72.4H19c-1.1,0-2-0.9-2-2s0.9-2,2-2h72.2c1.1,0,2,0.9,2,2S92.3,72.4,91.2,72.4z"/>
	</g>
	<g>
		<path d="M91.2,82.1H19c-1.1,0-2-0.9-2-2s0.9-2,2-2h72.2c1.1,0,2,0.9,2,2S92.3,82.1,91.2,82.1z"/>
	</g>
	<g>
		<path d="M91.2,91.9H19c-1.1,0-2-0.9-2-2s0.9-2,2-2h72.2c1.1,0,2,0.9,2,2S92.3,91.9,91.2,91.9z"/>
	</g>
	<g>
		<path d="M35,101.5c-1.1,0-2-0.9-2-2V71.2c0-1.1,0.9-2,2-2s2,0.9,2,2v28.2C37,100.6,36.1,101.5,35,101.5z"/>
	</g>
	<g>
		<path d="M54.5,101.5c-1.1,0-2-0.9-2-2V71.2c0-1.1,0.9-2,2-2s2,0.9,2,2v28.2C56.5,100.6,55.6,101.5,54.5,101.5z"/>
	</g>
	<g>
		<path d="M73.8,101.5c-1.1,0-2-0.9-2-2V71.2c0-1.1,0.9-2,2-2s2,0.9,2,2v28.2C75.8,100.6,74.9,101.5,73.8,101.5z"/>
	</g>
</g>
</svg>
