<?xml version="1.0" encoding="utf-8"?>
<!-- Generator: Adobe Illustrator 21.0.2, SVG Export Plug-In . SVG Version: 6.00 Build 0)  -->
<svg version="1.1" id="Icons" xmlns="http://www.w3.org/2000/svg" xmlns:xlink="http://www.w3.org/1999/xlink" x="0px" y="0px"
	 viewBox="0 0 45.5 45.5" style="enable-background:new 0 0 45.5 45.5;" xml:space="preserve">
<path d="M44.5,6.8c-0.7-0.9-1.6-2-2.7-3.1c-1.1-1.1-2.2-2.1-3.1-2.7c-0.7-0.5-2.2-1.6-3.2-0.6L2.7,33.2c0,0-0.1,0.1-0.1,0.1
	c0,0,0,0.1-0.1,0.1c0,0,0,0.1-0.1,0.1c0,0,0,0.1,0,0.1l-2.4,9.5c-0.2,0.6,0,1.3,0.5,1.8c0.4,0.4,0.8,0.6,1.3,0.6
	c0.2,0,0.3,0,0.5-0.1l9.6-2.4c0,0,0.1,0,0.1,0c0,0,0.1,0,0.1-0.1l33-32.9C46.1,9,45,7.5,44.5,6.8z M30.1,8.6l2.9,2.9L7.8,36.8
	l-2.9-2.9L30.1,8.6z M6.2,42.4c0,0,0-0.1,0-0.1C6.1,42.2,6,42.1,6,42c0-0.1-0.1-0.2-0.2-0.3c0-0.1-0.1-0.1-0.1-0.2l0-0.1
	c-0.1-0.1-0.1-0.2-0.2-0.3c-0.1-0.1-0.2-0.3-0.4-0.5C5,40.7,5,40.7,4.9,40.6c-0.1-0.1-0.1-0.1-0.2-0.2c-0.1-0.1-0.1-0.1-0.2-0.2
	c-0.1-0.1-0.1-0.1-0.2-0.2l-0.1,0c-0.1-0.1-0.1-0.1-0.2-0.2c-0.1,0-0.1-0.1-0.2-0.1l-0.1,0c-0.1,0-0.2-0.1-0.3-0.1
	c-0.1,0-0.1-0.1-0.2-0.1l-0.1,0c0,0,0,0-0.1,0L4,35.8l5.7,5.7L6.2,42.4z M11.6,41l-3-3l25.6-25.6l3,3L11.6,41z M38.3,14l-6.7-6.7
	l0.4-0.4l6.7,6.7L38.3,14z M40.1,12.2l-6.7-6.7l3.3-3.3c0.6,0.3,1.9,1.2,3.7,3s2.8,3.1,3,3.7L40.1,12.2z"/>
</svg>
