<?xml version="1.0" encoding="utf-8"?>
<!-- Generator: Adobe Illustrator 21.0.2, SVG Export Plug-In . SVG Version: 6.00 Build 0)  -->
<svg version="1.1" id="Layer_1" xmlns="http://www.w3.org/2000/svg" xmlns:xlink="http://www.w3.org/1999/xlink" x="0px" y="0px"
	 viewBox="0 0 45 62.1" style="enable-background:new 0 0 45 62.1;" xml:space="preserve">
<g>
	<g>
		<path d="M25.4,53.4l-20-11.4L25,7.9L42.7,0L45,19.3L25.4,53.4z M9.5,40.9l14.8,8.4l17.7-30.7L40.2,4.4l-13.1,5.8L9.5,40.9z"/>
	</g>
	<g>
		<polygon points="37.3,9.5 35.7,5.2 37.3,4.5 38.5,7.6 42,7.1 42.2,8.8 		"/>
	</g>
	<g>
		<polygon points="43.4,19.8 32.1,19 25.4,9.6 26.8,8.5 33.1,17.3 43.6,18.1 		"/>
	</g>
	<g>
		<rect x="8.9" y="33.1" transform="matrix(0.5006 -0.8657 0.8657 0.5006 -17.7972 37.1519)" width="28.7" height="1.7"/>
	</g>
	<g>
		<polygon points="20,62.1 0,50.7 6.1,40.7 8.7,42.3 4.2,49.7 19,58.1 23.5,50.6 26.1,52.2 		"/>
	</g>
	<g>
		<rect x="13.8" y="41.3" transform="matrix(0.4935 -0.8697 0.8697 0.4935 -36.9231 38.6245)" width="1.8" height="19.5"/>
	</g>
</g>
</svg>
